<?xml version="1.0" encoding="UTF-8"?>
<svg id="Layer_2" xmlns="http://www.w3.org/2000/svg" version="1.1" viewBox="0 0 415.8 223.4">
  <!-- Generator: Adobe Illustrator 29.2.1, SVG Export Plug-In . SVG Version: 2.1.0 Build 116)  -->
  <defs>
    <style>
      .st0 {
        fill: #42e8b9;
      }

      .st1 {
        fill: #42e8b9;
      }
    </style>
  </defs>
  <g id="Layer_1-2">
    <g>
      <g>
        <path class="st1" d="M242.2,18.9l-.2.2c-2.2,2.2-5.6,2.7-8.4,1.2-7.1-3.7-15.3-5.8-23.9-5.8s-16.3,1.9-23.5,5.6c-2.7,1.4-6.1.8-8.2-1.3l-.2-.2c-3.4-3.4-2.5-9.2,1.8-11.4C188.9,2.5,199.1,0,209.8,0s21.5,2.7,30.7,7.6c4.3,2.2,5.1,8,1.7,11.4h0Z"/>
        <path class="st1" d="M162.5,98.5l-.2.2c-3.4,3.4-9.1,2.5-11.4-1.8-4.9-9.3-7.5-19.8-7.5-30.7s2.6-21.3,7.5-30.6c2.2-4.3,8-5.2,11.4-1.8l.2.2c2.2,2.2,2.7,5.6,1.3,8.4-3.8,7.3-5.8,15.4-5.8,23.8s2,16.6,5.8,23.8c1.4,2.8,1,6.2-1.3,8.4h0Z"/>
        <path class="st1" d="M242.2,113.7c3.4,3.4,2.5,9.2-1.8,11.4-9.4,4.9-19.8,7.5-30.6,7.5s-21-2.5-30.2-7.2c-4.3-2.2-5.2-8-1.8-11.4l.2-.2c2.2-2.2,5.5-2.7,8.3-1.3,1.2.6,2.4,1.2,3.7,1.7,6.2,2.6,12.9,3.9,19.8,3.9s16.6-2,23.8-5.8c2.8-1.4,6.2-1,8.4,1.3l.2.2h0Z"/>
        <path class="st1" d="M257.4,98.2l-.2-.2c-2.2-2.2-2.7-5.5-1.3-8.2,3.7-7.2,5.6-15.2,5.6-23.5,0-8.5-2-16.4-5.6-23.5-1.4-2.8-.9-6.1,1.3-8.3l.2-.2c3.4-3.4,9.2-2.5,11.4,1.8,4.6,9,7.2,19.3,7.2,30.1s-2.5,20.9-7.2,30.1c-2.2,4.3-8,5.2-11.4,1.8h0Z"/>
        <path class="st1" d="M203.2,57.9l-1.5,1.5c-2.8,2.8-7.3,2.8-10.1,0l-29.3-29.3c-2.8-2.8-2.8-7.2,0-10.1.2-.2.4-.4.6-.6.4-.4.7-.7,1.1-1.1,2.8-2.7,7.2-2.6,10,.1l29.3,29.3c2.8,2.8,2.8,7.3,0,10.1h0Z"/>
        <path class="st1" d="M256.6,113.2c-.2.2-.4.4-.6.6-2.8,2.7-7.3,2.7-10.1,0l-28.9-28.9c-2.8-2.8-2.8-7.3,0-10.1l1.5-1.5c2.8-2.8,7.3-2.8,10.1,0l28.9,28.9c2.7,2.7,2.8,7.2.1,10-.4.4-.7.7-1.1,1.1h0Z"/>
        <path class="st1" d="M203.1,74.7c2.8,2.8,2.8,7.3,0,10.1l-21.6,21.6-1.9,1.9-5.7,5.7c-2.7,2.7-7.2,2.8-9.9.2-.4-.3-.7-.7-1-1s-.4-.4-.6-.6c-2.7-2.8-2.7-7.3,0-10.1l5.6-5.6,1.9-1.9,21.7-21.7c2.8-2.8,7.3-2.8,10.1,0l1.4,1.4h0Z"/>
        <rect class="st1" x="201.9" y="58.1" width="16.4" height="16.3" rx="7.1" ry="7.1" transform="translate(14.6 167.9) rotate(-45)"/>
        <path class="st1" d="M257.7,20.5c2.7,2.8,2.6,7.2-.1,10l-5.7,5.7-1.9,1.9-21.3,21.2c-2.8,2.8-7.3,2.8-10.1,0l-1.4-1.4c-2.8-2.8-2.8-7.3,0-10.1l21.3-21.3,1.9-1.9,5.6-5.6c2.8-2.8,7.2-2.8,10.1,0,.2.2.4.4.5.5.4.4.7.7,1,1.1h0Z"/>
      </g>
      <g>
        <path class="st0" d="M0,189l15.7-33.1h8l15.1,33.1h-9.2l-3-7h-14.6l-3,7H0ZM14.8,175.4h8.7l-4.4-10.2s-4.3,10.2-4.3,10.2Z"/>
        <path class="st0" d="M49,156v17.8c0,6.5,2.6,9.3,8.6,9.3s5.6-.9,7.1-2.7c.6-.7,1-1.5,1.2-2.4.2-.9.4-2.3.4-4.2v-17.8h8.2v18.6c0,10-5.8,15.3-16.9,15.3s-16.9-5.3-16.9-15.3v-18.6h8.2,0Z"/>
        <path class="st0" d="M97,156c3.6,0,6.3.2,8.1.5,1.8.3,3.3.9,4.8,1.7,2.4,1.3,4.3,3.2,5.7,5.7,1.3,2.5,2,5.4,2,8.6s-.7,6.1-2,8.6c-1.3,2.5-3.2,4.4-5.7,5.8-1.4.8-3,1.3-4.8,1.6-1.8.3-4.5.5-8.1.5h-14.9v-33.1h14.9ZM90.8,162.6v19.6h6.4c7.6,0,11.6-3.4,11.6-9.8s-4-9.8-11.6-9.8h-6.4Z"/>
        <path class="st0" d="M123.2,189v-33.1h8.3v33.1h-8.3Z"/>
        <path class="st0" d="M154.6,162.6v26.4h-8.2v-26.4h-11.3v-6.7h30.9v6.7h-11.3Z"/>
        <path class="st0" d="M184.7,177.6h8.5v.3c0,3.7,3.4,5.7,9.6,5.7s7.6-1.5,7.6-4.1-.4-1.9-1.3-2.4c-.9-.5-2.6-.9-5.2-1.2l-5.9-.6c-8.6-.9-12.5-3.8-12.5-9.3s1.4-5.9,4.4-7.9c2.9-2,6.8-3.1,11.6-3.1s9.2,1,12.1,2.9c2.9,1.9,4.4,4.6,4.4,7.9v.3h-8.2c-.4-3.3-3.1-4.9-8.1-4.9s-7.3,1.4-7.3,3.8.4,1.7,1.1,2.1c.7.4,2.6.8,5.5,1.2l6.1.6c8.5.9,12.3,4,12.3,9.7s-6.1,11.3-17.6,11.3-9.7-1-12.6-3c-2.9-2-4.4-4.9-4.4-8.6v-.7h0Z"/>
        <path class="st0" d="M241.1,162.6v26.4h-8.2v-26.4h-11.3v-6.7h30.9v6.7h-11.3Z"/>
        <path class="st0" d="M250.5,189l15.7-33.1h8l15.1,33.1h-9.2l-3-7h-14.5l-3,7h-9ZM265.3,175.4h8.7l-4.5-10.2-4.3,10.2h0Z"/>
        <path class="st0" d="M306.9,162.6v26.4h-8.2v-26.4h-11.3v-6.7h30.9v6.7h-11.3Z"/>
        <path class="st0" d="M321.8,189v-33.1h8.3v33.1h-8.3Z"/>
        <path class="st0" d="M341.2,159.8c3.6-3.1,8.4-4.7,14.4-4.7s10.8,1.6,14.4,4.7c3.6,3.1,5.4,7.4,5.4,12.7s-1.8,9.5-5.4,12.6-8.4,4.7-14.4,4.7-10.8-1.6-14.4-4.7-5.4-7.4-5.4-12.6,1.8-9.5,5.4-12.7ZM363.5,180.2c1.9-1.9,2.8-4.4,2.8-7.7s-.9-5.9-2.8-7.8c-1.9-1.9-4.5-2.8-7.8-2.8s-5.9.9-7.8,2.8c-1.9,1.9-2.9,4.5-2.9,7.8s1,5.9,2.9,7.7c1.9,1.9,4.5,2.8,7.9,2.8s5.9-.9,7.8-2.8h0Z"/>
        <path class="st0" d="M381.2,189v-33.1h10.2l16.5,23.3v-23.3h8v33.1h-10.1l-16.7-23.5v23.5h-7.9Z"/>
      </g>
      <g>
        <path class="st0" d="M155.5,222.9v-19.3h7.8c4.8,0,7.1,1.8,7.1,5.7s-2.3,5.7-7.1,5.7h-5.9v7.9h-1.9,0ZM157.5,213.1h5.6c2.1,0,3.4-.3,4.2-.9s1.2-1.6,1.2-3-.4-2.4-1.2-3c-.8-.6-2.2-.9-4.2-.9h-5.6v7.7Z"/>
        <path class="st0" d="M173.7,222.9v-19.3h1.8v19.3h-1.8Z"/>
        <path class="st0" d="M194,222.7c-.6.2-1.1.3-1.6.3-1.2,0-1.8-.6-1.9-2.2-1.6,1.8-3.4,2.5-6.1,2.5s-5.4-1.5-5.4-4.2.5-2.3,1.5-3c.4-.3.9-.5,1.6-.7s1.8-.4,3.4-.6c.4,0,.9-.1,1.5-.2,2.3-.3,3.4-.9,3.4-2,0-1.6-1.4-2.4-3.9-2.4s-4.9,1.1-5,3.3h-1.8c.2-3.3,2.4-5,6.6-5s4.3.5,5.2,1.7c.3.4.5.8.6,1.2.1.5.2,1.2.2,2.2v6.3c0,.6,0,1,.2,1.2.1.2.3.2.6.2s.5,0,.8-.1v1.6h0ZM190.6,215.2c-.3.2-.9.4-1.5.5-.7.2-1.8.4-3.4.6-2.1.3-3.3.7-3.9,1-.5.4-.8.9-.8,1.7s.3,1.4,1,1.8,1.6.7,2.7.7c1.8,0,3.2-.4,4.3-1.2,1.1-.8,1.6-1.9,1.6-3.2v-1.9h0Z"/>
        <path class="st0" d="M199.6,219.1c0,1.1.1,1.7.4,1.9.2.2.7.4,1.3.4s.9,0,1.5-.2v1.6c-.9.2-1.6.3-2.3.3-1,0-1.7-.3-2.1-.9-.4-.6-.6-1.5-.6-2.9v-9.1h-2.4v-1.5h2.4v-4.1h1.9v4.1h3.2v1.5h-3.2v8.8h0Z"/>
        <path class="st0" d="M205.7,222.9v-12.6h-2.4v-1.5h2.4v-1.1c0-1.6.2-2.7.6-3.2s1.2-.8,2.3-.8,1.3.1,2.1.3v1.6c-.8-.2-1.2-.2-1.6-.2-.6,0-1.1.1-1.3.4-.2.2-.3.8-.3,1.7v1.4h3.2v1.5h-3.2v12.6h-1.9,0Z"/>
        <path class="st0" d="M214.1,210.3c1.4-1.4,3.2-2.1,5.5-2.1s4.1.7,5.5,2.1,2.1,3.2,2.1,5.5-.7,4.1-2.1,5.5-3.2,2.1-5.5,2.1-4.1-.7-5.5-2.1-2.1-3.2-2.1-5.5.7-4.1,2.1-5.5ZM215.4,220c1,1,2.4,1.6,4.1,1.6s3.1-.5,4.1-1.6c1-1,1.5-2.4,1.5-4.2s-.5-3.1-1.5-4.2c-1-1-2.4-1.6-4.1-1.6s-3.1.5-4.1,1.6-1.5,2.4-1.5,4.2.5,3.2,1.5,4.2h0Z"/>
        <path class="st0" d="M232,222.9h-1.9v-14.1h1.9v2.4c.8-1.8,2.4-2.9,4.2-2.9s1.2.1,1.9.4v1.8c-.6-.2-1.1-.3-1.7-.3-2.2,0-3.7,1.2-4.5,3.6v9.1h0Z"/>
        <path class="st0" d="M240.1,222.9v-14.1h1.8v2.6c1.4-1.9,3.4-2.9,5.9-2.9s4.4.9,5.2,2.9c1.4-1.9,3.4-2.9,5.9-2.9,3.7,0,5.5,1.7,5.5,5.3v9.1h-1.9v-7.9c0-1.8-.3-3.1-.9-3.8-.6-.7-1.6-1-3-1s-2.9.4-4,1.3c-1,.9-1.6,2-1.6,3.4v8.1h-1.7v-7.9c0-1.8-.3-3.1-.9-3.8s-1.6-1.1-3-1.1-2.9.4-4,1.3c-1,.9-1.6,2-1.6,3.4v8.1h-1.9Z"/>
      </g>
    </g>
  </g>
</svg>