<svg width="74" height="38" viewBox="0 0 74 38" fill="none" xmlns="http://www.w3.org/2000/svg">
<path d="M4.16853 23.5771H2.50042L0 37.0544H1.52323L1.98571 34.2856H4.70814L5.18616 37.0544H6.70323L4.16853 23.5771ZM2.36813 32.0138L3.33943 26.275L4.31689 32.0138H2.36813Z" fill="white"/>
<path d="M11.396 23.541V31.9957C11.396 33.0429 11.288 33.806 11.0692 34.2855C10.8504 34.7588 10.505 34.9956 10.027 34.9956C9.55538 34.9956 9.21314 34.7588 8.99729 34.2798C8.78145 33.8004 8.67353 33.0373 8.67353 31.9962V23.541H7.21216V32.2973C7.21216 33.9597 7.45585 35.2259 7.93976 36.1071C8.42688 36.9884 9.12369 37.4324 10.0363 37.4324C10.9428 37.4324 11.6364 36.9884 12.1174 36.1071C12.6016 35.2197 12.8421 33.9535 12.8421 32.2973V23.541H11.396Z" fill="white"/>
<path d="M19.4215 25.2513C18.8913 24.1332 18.0866 23.5771 17.0105 23.5771H14.2573V37.0544H16.619C17.2604 37.0544 17.7598 36.9655 18.1174 36.7764C18.4719 36.5929 18.7895 36.2851 19.0702 35.8591C19.4432 35.2851 19.7268 34.5282 19.9212 33.5873C20.1186 32.6464 20.2142 31.5642 20.2142 30.3273C20.2139 28.0617 19.9486 26.3695 19.4215 25.2513ZM18.2898 33.6109C17.9907 34.2856 17.5036 34.6227 16.8314 34.6227H15.6753V25.9435H17.0103C17.6053 25.9435 18.04 26.2986 18.3206 27.0082C18.6013 27.7184 18.74 28.8248 18.74 30.3273C18.74 31.8422 18.5922 32.9367 18.2898 33.6109Z" fill="white"/>
<path d="M21.407 23.5771V37.0544H22.8531V23.5771H21.407Z" fill="white"/>
<path d="M23.7288 23.5771V25.9851H25.813V37.0544H27.2591V25.9851H29.3279V23.5771H23.7288Z" fill="white"/>
<path d="M38.115 31.2027C37.9701 30.6996 37.7572 30.2972 37.4707 29.9899C37.3103 29.8183 37.1255 29.6647 36.9097 29.5228C36.697 29.3867 36.3331 29.1914 35.8213 28.937C35.7011 28.8836 35.5316 28.807 35.3157 28.7119C34.5172 28.3569 34.1163 27.8245 34.1163 27.1087C34.1163 26.582 34.221 26.1796 34.4245 25.8959C34.631 25.6118 34.9207 25.4699 35.3002 25.4699C35.7348 25.4699 36.0709 25.6416 36.3085 25.9848C36.5428 26.3219 36.6724 26.825 36.697 27.4756H38.0845C38.0598 26.121 37.8162 25.0738 37.3537 24.3281C36.8912 23.5825 36.2498 23.21 35.4298 23.21C34.5512 23.21 33.8819 23.5589 33.4165 24.2572C32.954 24.9556 32.7197 25.9612 32.7197 27.2747C32.7197 27.9725 32.7845 28.5819 32.9171 29.0968C33.0467 29.6174 33.2347 30.0259 33.4845 30.3275C33.762 30.6708 34.2306 30.9786 34.8875 31.2566C34.9523 31.2864 35.0016 31.3039 35.0324 31.3219L35.0755 31.3399C36.2996 31.8722 36.9131 32.5526 36.9131 33.3691C36.9131 33.9313 36.8052 34.3573 36.5926 34.641C36.38 34.9308 36.0653 35.0726 35.6459 35.0726C35.1526 35.0726 34.7734 34.8953 34.5145 34.5341C34.2523 34.179 34.0951 33.6286 34.0426 32.8953H32.615C32.6552 34.345 32.9232 35.4631 33.4259 36.2499C33.9285 37.0366 34.6221 37.4333 35.5069 37.4333C36.4011 37.4333 37.0979 37.0489 37.5912 36.2735C38.0813 35.5043 38.3282 34.4159 38.3282 33.0135C38.3276 32.309 38.2567 31.7057 38.115 31.2027Z" fill="white"/>
<path d="M38.8242 23.5771V25.9851H40.9085V37.0544H42.3546V25.9851H44.4233V23.5771H38.8242Z" fill="white"/>
<path d="M48.3543 23.5771H46.6862L44.1858 37.0544H45.7058L46.1715 34.2856H48.8939L49.3687 37.0544H50.8855L48.3543 23.5771ZM46.5507 32.0138L47.525 26.275L48.5024 32.0138H46.5507Z" fill="white"/>
<path d="M50.6328 23.5771V25.9851H52.7171V37.0544H54.1632V25.9851H56.2351V23.5771H50.6328Z" fill="white"/>
<path d="M57.1169 23.5771V37.0544H58.5598V23.5771H57.1169Z" fill="white"/>
<path d="M65.6976 25.1504C65.078 23.8668 64.2424 23.2275 63.1911 23.2275C62.1426 23.2275 61.3103 23.8668 60.6906 25.1443C60.0739 26.4223 59.7625 28.1499 59.7625 30.3271C59.7625 32.5044 60.0739 34.2259 60.6906 35.51C61.3103 36.7937 62.1429 37.4329 63.1911 37.4329C64.2424 37.4329 65.078 36.7942 65.6976 35.51C66.3205 34.2264 66.632 32.5044 66.632 30.3271C66.6317 28.156 66.3205 26.4284 65.6976 25.1504ZM64.6463 33.7824C64.3008 34.6046 63.8169 35.0131 63.1911 35.0131C62.5743 35.0131 62.0966 34.6051 61.7511 33.7824C61.4089 32.9659 61.2361 31.8122 61.2361 30.3271C61.2361 28.8421 61.4089 27.6884 61.7511 26.8719C62.0966 26.0554 62.5743 25.6412 63.1911 25.6412C63.8169 25.6412 64.3011 26.0554 64.6463 26.8775C64.9947 27.6941 65.1674 28.8477 65.1674 30.3266C65.1674 31.8122 64.9947 32.9659 64.6463 33.7824Z" fill="white"/>
<path d="M72.1383 23.5771V32.836L69.2863 23.5771H67.7754V37.0544H69.203V27.7955L72.0735 37.0544H73.566V23.5771H72.1383Z" fill="white"/>
<path d="M4.99786 1.19531C4.49841 1.19531 4.08521 1.97639 4.08521 2.94657C4.08521 3.9111 4.49841 4.69784 4.99786 4.69784C5.49435 4.69784 5.91051 3.9111 5.91051 2.94657C5.91077 1.98821 5.50372 1.19531 4.99786 1.19531ZM7.59709 1.19531C7.1006 1.19531 6.68444 1.98821 6.68444 2.94657C6.68444 3.40803 6.78299 3.86948 6.95572 4.17729C7.11613 4.50873 7.35661 4.69784 7.59709 4.69784C8.09038 4.69784 8.50974 3.9111 8.50974 2.94657C8.50974 1.98821 8.10269 1.19531 7.59709 1.19531Z" fill="white"/>
<path d="M9.96515 17.2041C9.46571 17.2041 9.05249 17.9852 9.05249 18.9554C9.05249 19.9137 9.45633 20.701 9.96515 20.701C10.4678 20.701 10.8778 19.9317 10.8778 18.9554C10.8778 18.0027 10.471 17.2041 9.96515 17.2041ZM13.2149 17.7128C13.0392 17.3932 12.814 17.2041 12.5705 17.2041C12.0679 17.2041 11.6579 17.9734 11.6579 18.9554C11.6579 19.9255 12.0526 20.701 12.5705 20.701C13.07 20.701 13.4803 19.9261 13.4803 18.9554C13.4803 18.4821 13.3814 18.0499 13.2149 17.7128Z" fill="white"/>
<path d="M16.6741 1.15918C16.1747 1.15918 15.7615 1.93409 15.7615 2.90428C15.7615 3.86881 16.1685 4.65554 16.6741 4.65554C17.1768 4.65554 17.5868 3.88628 17.5868 2.90428C17.5868 1.93409 17.192 1.15918 16.6741 1.15918ZM19.2795 1.15918C18.7769 1.15918 18.3669 1.92844 18.3669 2.90428C18.3669 3.86881 18.7739 4.65554 19.2795 4.65554C19.779 4.65554 20.1892 3.87446 20.1892 2.90428C20.1892 1.94591 19.7883 1.15918 19.2795 1.15918Z" fill="white"/>
<path d="M17.9784 6.01074C16.5446 6.06984 15.4255 8.18184 15.4131 10.9511V12.3534H13.1717V7.79181C13.1163 6.72091 12.8139 6.12945 12.262 6.01691C11.6977 6.12945 11.3957 6.72091 11.3493 7.79181V12.3534H8.86738V10.9809C8.83658 8.21781 7.73593 6.11197 6.29599 6.04671C4.85925 6.11197 3.74923 8.21215 3.73692 10.9809V14.1401C3.78324 15.211 4.09148 15.8025 4.64957 15.8914H7.03591C6.98958 16.6725 6.7491 17.1041 6.31741 17.193H2.7841C2.35562 17.1041 2.11514 16.6725 2.06265 15.8914C2.06265 15.8498 2.06265 15.8143 2.05944 15.785V11.3005C2.05328 11.2116 2.04712 11.1289 2.0439 11.0518C1.95446 10.1407 1.65854 9.63762 1.14678 9.54924C0.588692 9.63814 0.28046 10.2296 0.234131 11.3005V15.785C0.243504 18.5363 1.35326 20.6544 2.7841 20.7135H6.31741C7.72656 20.6544 8.83631 18.5836 8.86711 15.8739H19.6277C20.1674 15.785 20.4756 15.2234 20.5433 14.1936C20.5495 14.1699 20.5495 14.152 20.5495 14.1227V10.9516C20.519 8.19982 19.4122 6.06984 17.9784 6.01074ZM7.03297 12.3704H5.5716V10.9798C5.60855 10.1279 5.84903 9.66075 6.29626 9.57185C6.74026 9.66075 6.98691 10.1279 7.03324 10.9798V12.3704H7.03297ZM18.7154 12.3529H17.2508V10.9506C17.2848 10.0986 17.5253 9.63146 17.9784 9.53639C18.4224 9.63094 18.6658 10.0986 18.7154 10.9506V12.3529Z" fill="white"/>
<path d="M35.4481 2.90479V10.9391C35.4481 11.4304 35.4112 11.9036 35.3434 12.3533V12.3713L35.3373 12.3831C35.22 13.1287 35.0106 13.8091 34.7082 14.4005C34.224 15.3532 33.6167 15.844 32.8984 15.8738H22.5079C21.9469 15.7494 21.6384 15.1636 21.592 14.0989C21.6384 13.0342 21.9466 12.4422 22.5079 12.3538H25.3814V10.9396C25.335 10.0702 25.0884 9.60871 24.6476 9.53728H23.2602C22.7021 9.41909 22.3938 8.82712 22.3475 7.76855C22.3938 6.69765 22.7021 6.11184 23.2602 6.01729H24.6476C26.0905 6.04093 27.1911 8.18838 27.2219 10.9396V12.3538H29.4634V7.79219C29.5097 6.72129 29.818 6.12982 30.3761 6.01729C30.9341 6.12982 31.2362 6.72129 31.2919 7.79219V12.3538H32.8982C33.3266 12.2592 33.5671 11.8332 33.6167 11.0522C33.6228 11.0105 33.6228 10.9694 33.6228 10.9396V2.90479C33.629 2.82771 33.6352 2.74498 33.6384 2.6679C33.7278 1.74499 34.0237 1.24808 34.5355 1.15918C35.0936 1.24808 35.4018 1.83389 35.4481 2.90479Z" fill="white"/>
<path d="M30.3977 1.15918C29.895 1.15918 29.485 1.92844 29.485 2.90428C29.485 3.87446 29.8921 4.65554 30.3977 4.65554C30.8909 4.65554 31.3103 3.87446 31.3103 2.90428C31.3103 1.94591 30.9033 1.15918 30.3977 1.15918ZM27.7923 1.15918C27.2928 1.15918 26.8828 1.92844 26.8828 2.90428C26.8828 3.86881 27.2837 4.65554 27.7923 4.65554C28.2949 4.65554 28.7049 3.87446 28.7049 2.90428C28.7049 1.94591 28.2979 1.15918 27.7923 1.15918Z" fill="white"/>
<path d="M37.4026 1.17676C36.8446 1.28929 36.5363 1.86894 36.49 2.92802V14.1216C36.5363 15.1925 36.8446 15.784 37.4026 15.8729C37.9546 15.784 38.2567 15.1925 38.3153 14.1216V2.92802C38.2567 1.86894 37.9546 1.28929 37.4026 1.17676Z" fill="white"/>
<path d="M42.8172 1.10541C42.6415 0.768311 42.4256 0.59668 42.1758 0.59668C41.9262 0.59668 41.7133 0.768311 41.5344 1.10541C41.3587 1.44867 41.2693 1.85669 41.2693 2.33612C41.2693 2.81556 41.3587 3.22974 41.5344 3.56684C41.7133 3.9101 41.9259 4.07557 42.1758 4.07557C42.4256 4.07557 42.6415 3.9101 42.8172 3.56684C42.996 3.22974 43.0823 2.81556 43.0823 2.33612C43.0823 1.85669 42.9958 1.44867 42.8172 1.10541ZM45.5241 1.10541C45.3484 0.768311 45.1325 0.59668 44.8827 0.59668C44.6267 0.59668 44.414 0.768311 44.2384 1.10541C44.0595 1.44867 43.97 1.85669 43.97 2.33612C43.97 2.81556 44.0595 3.22974 44.2384 3.56684C44.414 3.9101 44.6269 4.07557 44.8827 4.07557C45.1325 4.07557 45.3484 3.9101 45.5241 3.56684C45.7029 3.22974 45.7892 2.81556 45.7892 2.33612C45.7892 1.85669 45.7029 1.44867 45.5241 1.10541Z" fill="white"/>
<path d="M70.9855 6.01644C69.5394 6.07553 68.4296 8.18188 68.4202 10.9624V12.3529H65.7348V10.9388C65.704 8.18188 64.6157 6.04008 63.1663 6.01644H60.521C59.9662 6.11099 59.6577 6.6968 59.6116 7.7677C59.6579 8.82678 59.9662 9.41825 60.521 9.53644H63.1663C63.6071 9.60735 63.8538 10.0688 63.9001 10.9388V12.3529H57.0552V10.7671C57.0244 7.92751 55.8836 5.70863 54.3914 5.68499H50.8458V2.31864C50.7842 1.20612 50.5252 0.756486 49.9393 0.567383C49.5231 0.644463 49.2457 0.987214 49.1161 1.58484L49.0944 1.68556C49.0574 1.87466 49.039 2.08792 49.0266 2.31864V12.3529H46.967V12.3591H46.4828V10.8031C46.4799 9.38895 46.2177 8.18804 45.7121 7.21786C45.2065 6.23586 44.5807 5.73895 43.8346 5.70915C43.1008 5.73895 42.4809 6.23586 41.9691 7.21786C41.4574 8.18804 41.1984 9.38895 41.1829 10.8031V14.1222C41.2292 14.8796 41.3893 15.394 41.6761 15.6602C41.7964 15.7727 41.9445 15.8437 42.1046 15.8729H72.6316C73.1742 15.784 73.4827 15.2224 73.5534 14.1926V10.9624C73.5229 8.19986 72.4284 6.07553 70.9855 6.01644ZM44.6549 12.3704H43.0114V10.7908C43.0639 9.83808 43.3413 9.31753 43.8346 9.21116C44.3402 9.31753 44.6176 9.84989 44.6546 10.8026V12.3704H44.6549ZM55.2211 12.3529H50.8461V9.19934H54.3979C54.8941 9.27025 55.1686 9.79697 55.2211 10.7671V12.3529ZM71.7193 12.3529H70.2547V10.9624C70.2916 10.1104 70.5321 9.6315 70.9855 9.53644C71.4295 9.63099 71.6729 10.1104 71.7193 10.9624V12.3529Z" fill="white"/>
</svg>
